<svg height="800" width="800" version="1.1" id="Layer_1" xmlns="http://www.w3.org/2000/svg" viewBox="0 0 512 512" xml:space="preserve"><path style="fill:#1e0478" d="M128.048 34.395C187.248.218 256.213-8.855 322.234 8.826 388.256 26.52 443.431 68.864 477.607 128.05c34.176 59.199 43.25 128.165 25.569 194.186-17.694 66.021-60.039 121.196-119.224 155.373-39.439 22.771-83.196 34.39-127.539 34.39-22.225 0-44.596-2.918-66.647-8.821-66.021-17.694-121.196-60.039-155.373-119.224-34.176-59.2-43.25-128.165-25.569-194.186C26.519 123.746 68.863 68.571 128.048 34.395zm349.386 280.939c15.842-59.146 7.715-120.93-22.904-173.96s-80.052-90.95-139.197-106.806c-19.746-5.29-39.799-7.901-59.705-7.901-39.719 0-78.919 10.406-114.254 30.805-53.018 30.619-90.952 80.052-106.808 139.197-15.842 59.146-7.715 120.93 22.904 173.96s80.051 90.951 139.197 106.806c59.146 15.842 120.93 7.715 173.96-22.904s90.951-80.051 106.807-139.197z"/><path style="fill:#9b8ccc" d="M454.53 141.374c30.619 53.03 38.747 114.814 22.904 173.96-15.856 59.146-53.776 108.578-106.806 139.197s-114.814 38.747-173.96 22.904C137.522 461.58 88.089 423.659 57.47 370.629s-38.747-114.814-22.904-173.96c15.856-59.146 53.79-108.578 106.806-139.197 35.336-20.399 74.535-30.805 114.254-30.805 19.906 0 39.959 2.612 59.705 7.901 59.147 15.856 108.58 53.776 139.199 106.806zm-43.61 11.766c5.823-4.504 6.889-12.884 2.385-18.694C381.62 93.501 333.973 66 282.608 58.978c-7.288-.999-14.017 4.104-15.003 11.405-.999 7.288 4.104 14.004 11.392 15.003 44.516 6.076 85.781 29.913 113.229 65.368 2.625 3.398 6.569 5.17 10.553 5.17 2.851 0 5.716-.906 8.141-2.784zm-18.201 102.862c0-10.086-5.21-19.107-13.937-24.143l-164.526-95.001c-8.741-5.037-19.16-5.037-27.887 0-8.727 5.05-13.95 14.07-13.95 24.157V350.99c0 10.086 5.223 19.107 13.95 24.157 4.357 2.518 9.154 3.771 13.937 3.771 4.797 0 9.58-1.252 13.95-3.771l164.526-95.001c8.727-5.037 13.937-14.058 13.937-24.144z"/><path style="fill:#1e0478" d="M413.305 134.446c4.504 5.809 3.438 14.19-2.385 18.694a13.237 13.237 0 0 1-8.141 2.785c-3.984 0-7.928-1.772-10.553-5.17-27.448-35.456-68.713-59.292-113.229-65.368-7.288-.999-12.391-7.715-11.392-15.003.986-7.302 7.715-12.405 15.003-11.405C333.973 66 381.62 93.501 413.305 134.446zM378.782 231.859c8.727 5.037 13.937 14.057 13.937 24.143s-5.21 19.107-13.937 24.143l-164.526 95.001c-4.37 2.518-9.154 3.771-13.95 3.771-4.783 0-9.58-1.252-13.937-3.771-8.727-5.05-13.95-14.07-13.95-24.157V161.014c0-10.086 5.223-19.107 13.95-24.157 8.727-5.037 19.147-5.037 27.887 0l164.526 95.002zm-12.711 24.143c0-.719-.413-.959-.613-1.066l-164.526-95.001c-.133-.067-.333-.187-.613-.187-.173 0-.386.053-.626.187-.626.36-.626.839-.626 1.079V350.99c0 .24 0 .72.626 1.079.613.346 1.039.107 1.239 0l164.526-95.001c.2-.107.613-.347.613-1.066z"/><path style="fill:#94e7ef" d="M365.458 254.936c.2.107.613.346.613 1.066 0 .719-.413.959-.613 1.066l-164.526 95.001c-.2.107-.626.346-1.239 0-.626-.36-.626-.839-.626-1.079V161.014c0-.24 0-.72.626-1.079.24-.133.453-.187.626-.187.28 0 .48.12.613.187l164.526 95.001z"/></svg>