<svg width="800" height="800" viewBox="0 0 24 24" xmlns="http://www.w3.org/2000/svg" xmlns:xlink="http://www.w3.org/1999/xlink"><defs><circle id="power-a" cx="5" cy="5" r="5"/><path id="power-c" d="M5.196 2.369a1 1 0 1 1 .962 1.754 8 8 0 1 0 7.795.062 1 1 0 1 1 .989-1.74c.773.441 1.489.986 2.13 1.626 3.904 3.905 3.904 10.237 0 14.142-3.906 3.905-10.238 3.905-14.143 0-3.905-3.905-3.905-10.237 0-14.142A10.003 10.003 0 0 1 5.196 2.37ZM9.858 0a1 1 0 0 1 1 1v7a1 1 0 0 1-2 0V1a1 1 0 0 1 1-1Z"/></defs><g fill="none" fill-rule="evenodd" transform="translate(2 1)"><g transform="translate(5 6)"><mask id="power-b" fill="#fff"><use xlink:href="#power-a"/></mask><use fill="#D8D8D8" xlink:href="#power-a"/><g fill="#FFA0A0" mask="url('#power-b')"><path d="M-7-7h24v24H-7z"/></g></g><mask id="power-d" fill="#fff"><use xlink:href="#power-c"/></mask><use fill="#000" fill-rule="nonzero" xlink:href="#power-c"/><g fill="#7600FF" mask="url('#power-d')"><path d="M-2-1h24v24H-2z"/></g></g></svg>